<svg width="110" height="110" viewBox="0 0 110 110" fill="none" xmlns="http://www.w3.org/2000/svg">
<path d="M1.62549 0L28.7191 55L55.8127 110L98.0271 24.3047C103.545 13.1032 95.3931 0 82.9063 0C70.4195 0 62.2675 13.1032 67.7854 24.3046L82.9063 55L95.7939 81.1619C102.341 94.4527 92.6685 110 77.8527 110H21.6255C10.5798 110 1.62549 101.046 1.62549 90V0Z" fill="#1E1E1E"/>
<path d="M0 0L27.0936 55L54.1872 110L96.4016 24.3047C101.92 13.1032 93.7676 0 81.2808 0C68.794 0 60.642 13.1032 66.1599 24.3046L81.2808 55L94.1684 81.1619C100.716 94.4527 91.0431 110 76.2272 110H20C8.95432 110 0 101.046 0 90V0Z" fill="#FF8B25"/>
</svg>
