<svg width="420" height="124" viewBox="0 0 420 124" fill="none" xmlns="http://www.w3.org/2000/svg">
<path d="M154.79 24.2727L176.381 85.4943H177.233L198.824 24.2727H208.057L181.352 97H172.261L145.557 24.2727H154.79ZM219.385 97V24.2727H263.277V32.0852H228.192V56.6591H261.004V64.4716H228.192V89.1875H263.845V97H219.385ZM279.151 97V24.2727H303.724C309.406 24.2727 314.07 25.2434 317.716 27.1847C321.362 29.1023 324.061 31.7419 325.812 35.1037C327.564 38.4654 328.44 42.2888 328.44 46.5739C328.44 50.8589 327.564 54.6586 325.812 57.973C324.061 61.2874 321.374 63.8916 317.751 65.7855C314.129 67.6558 309.501 68.5909 303.866 68.5909H283.98V60.6364H303.582C307.465 60.6364 310.59 60.0682 312.957 58.9318C315.348 57.7955 317.077 56.1856 318.142 54.1023C319.231 51.9953 319.776 49.4858 319.776 46.5739C319.776 43.6619 319.231 41.1169 318.142 38.9389C317.053 36.7609 315.313 35.08 312.922 33.8963C310.531 32.6889 307.37 32.0852 303.44 32.0852H287.957V97H279.151ZM313.384 64.3295L331.281 97H321.054L303.44 64.3295H313.384ZM404.479 60.6364C404.479 68.3068 403.094 74.9356 400.324 80.5227C397.554 86.1098 393.755 90.4186 388.925 93.4489C384.096 96.4792 378.579 97.9943 372.377 97.9943C366.174 97.9943 360.658 96.4792 355.828 93.4489C350.999 90.4186 347.199 86.1098 344.429 80.5227C341.659 74.9356 340.275 68.3068 340.275 60.6364C340.275 52.9659 341.659 46.3371 344.429 40.75C347.199 35.1629 350.999 30.8542 355.828 27.8239C360.658 24.7936 366.174 23.2784 372.377 23.2784C378.579 23.2784 384.096 24.7936 388.925 27.8239C393.755 30.8542 397.554 35.1629 400.324 40.75C403.094 46.3371 404.479 52.9659 404.479 60.6364ZM395.956 60.6364C395.956 54.339 394.903 49.0241 392.796 44.6918C390.712 40.3594 387.883 37.0805 384.309 34.8551C380.757 32.6297 376.78 31.517 372.377 31.517C367.973 31.517 363.984 32.6297 360.409 34.8551C356.858 37.0805 354.029 40.3594 351.922 44.6918C349.839 49.0241 348.797 54.339 348.797 60.6364C348.797 66.9337 349.839 72.2486 351.922 76.581C354.029 80.9134 356.858 84.1922 360.409 86.4176C363.984 88.643 367.973 89.7557 372.377 89.7557C376.78 89.7557 380.757 88.643 384.309 86.4176C387.883 84.1922 390.712 80.9134 392.796 76.581C394.903 72.2486 395.956 66.9337 395.956 60.6364Z" fill="#1E1E1E"/>
<path d="M307.368 119V105.04H312.928C314.181 105.04 315.141 105.4 315.808 106.12C316.488 106.827 316.828 107.8 316.828 109.04C316.828 110.28 316.488 111.26 315.808 111.98C315.141 112.687 314.181 113.04 312.928 113.04H309.048V119H307.368ZM309.048 111.56H312.928C313.594 111.56 314.108 111.387 314.468 111.04C314.841 110.693 315.028 110.2 315.028 109.56V108.52C315.028 107.88 314.841 107.387 314.468 107.04C314.108 106.693 313.594 106.52 312.928 106.52H309.048V111.56ZM319.497 119V105.04H321.177V117.52H327.117V119H319.497ZM338.627 119L337.227 114.88H331.587L330.187 119H328.487L333.367 105.04H335.507L340.387 119H338.627ZM334.447 106.6H334.347L331.987 113.4H336.807L334.447 106.6ZM346.091 106.52V119H344.411V106.52H339.971V105.04H350.531V106.52H346.091ZM352.837 119V105.04H361.157V106.52H354.517V111.2H360.577V112.68H354.517V119H352.837ZM368.896 119.24C367.99 119.24 367.17 119.087 366.436 118.78C365.716 118.46 365.096 118 364.576 117.4C364.07 116.787 363.676 116.033 363.396 115.14C363.116 114.233 362.976 113.193 362.976 112.02C362.976 110.847 363.116 109.813 363.396 108.92C363.676 108.027 364.07 107.273 364.576 106.66C365.096 106.047 365.716 105.587 366.436 105.28C367.17 104.96 367.99 104.8 368.896 104.8C369.79 104.8 370.603 104.96 371.336 105.28C372.07 105.587 372.69 106.047 373.196 106.66C373.716 107.273 374.116 108.027 374.396 108.92C374.676 109.813 374.816 110.847 374.816 112.02C374.816 113.193 374.676 114.233 374.396 115.14C374.116 116.033 373.716 116.787 373.196 117.4C372.69 118 372.07 118.46 371.336 118.78C370.603 119.087 369.79 119.24 368.896 119.24ZM368.896 117.74C369.496 117.74 370.05 117.633 370.556 117.42C371.063 117.207 371.496 116.9 371.856 116.5C372.23 116.1 372.516 115.62 372.716 115.06C372.916 114.5 373.016 113.873 373.016 113.18V110.86C373.016 110.167 372.916 109.54 372.716 108.98C372.516 108.42 372.23 107.94 371.856 107.54C371.496 107.14 371.063 106.833 370.556 106.62C370.05 106.407 369.496 106.3 368.896 106.3C368.296 106.3 367.743 106.407 367.236 106.62C366.73 106.833 366.29 107.14 365.916 107.54C365.556 107.94 365.276 108.42 365.076 108.98C364.876 109.54 364.776 110.167 364.776 110.86V113.18C364.776 113.873 364.876 114.5 365.076 115.06C365.276 115.62 365.556 116.1 365.916 116.5C366.29 116.9 366.73 117.207 367.236 117.42C367.743 117.633 368.296 117.74 368.896 117.74ZM379.517 119H377.837V105.04H383.397C384.623 105.04 385.577 105.38 386.257 106.06C386.95 106.74 387.297 107.72 387.297 109C387.297 110.027 387.057 110.873 386.577 111.54C386.11 112.193 385.417 112.627 384.497 112.84L387.697 119H385.797L382.777 113H379.517V119ZM383.397 111.56C384.063 111.56 384.577 111.387 384.937 111.04C385.31 110.693 385.497 110.2 385.497 109.56V108.52C385.497 107.88 385.31 107.387 384.937 107.04C384.577 106.693 384.063 106.52 383.397 106.52H379.517V111.56H383.397ZM401.51 107.24H401.41L400.23 109.58L396.89 115.66L393.55 109.58L392.37 107.24H392.27V119H390.63V105.04H392.87L396.87 112.56H396.97L400.99 105.04H403.15V119H401.51V107.24Z" fill="#FF8B25"/>
<path d="M1.62549 9L28.7191 64L55.8127 119L98.0271 33.3047C103.545 22.1032 95.3931 9 82.9063 9C70.4195 9 62.2675 22.1032 67.7854 33.3046L82.9063 64L95.7939 90.1619C102.341 103.453 92.6685 119 77.8527 119H21.6255C10.5798 119 1.62549 110.046 1.62549 99V9Z" fill="#1E1E1E"/>
<path d="M0 9L27.0936 64L54.1872 119L96.4016 33.3047C101.92 22.1032 93.7676 9 81.2808 9C68.794 9 60.642 22.1032 66.1599 33.3046L81.2808 64L94.1684 90.1619C100.716 103.453 91.0431 119 76.2272 119H20C8.95432 119 0 110.046 0 99V9Z" fill="#FF8B25"/>
</svg>
