<svg width="277" height="124" viewBox="0 0 277 124" fill="none" xmlns="http://www.w3.org/2000/svg">
<path d="M11.7898 24.2727L33.3807 85.4943H34.233L55.8239 24.2727H65.0568L38.3523 97H29.2614L2.55682 24.2727H11.7898ZM76.3849 97V24.2727H120.277V32.0852H85.1918V56.6591H118.004V64.4716H85.1918V89.1875H120.845V97H76.3849ZM136.151 97V24.2727H160.724C166.406 24.2727 171.07 25.2434 174.716 27.1847C178.362 29.1023 181.061 31.7419 182.812 35.1037C184.564 38.4654 185.44 42.2888 185.44 46.5739C185.44 50.8589 184.564 54.6586 182.812 57.973C181.061 61.2874 178.374 63.8916 174.751 65.7855C171.129 67.6558 166.501 68.5909 160.866 68.5909H140.98V60.6364H160.582C164.465 60.6364 167.59 60.0682 169.957 58.9318C172.348 57.7955 174.077 56.1856 175.142 54.1023C176.231 51.9953 176.776 49.4858 176.776 46.5739C176.776 43.6619 176.231 41.1169 175.142 38.9389C174.053 36.7609 172.313 35.08 169.922 33.8963C167.531 32.6889 164.37 32.0852 160.44 32.0852H144.957V97H136.151ZM170.384 64.3295L188.281 97H178.054L160.44 64.3295H170.384ZM261.479 60.6364C261.479 68.3068 260.094 74.9356 257.324 80.5227C254.554 86.1098 250.755 90.4186 245.925 93.4489C241.096 96.4792 235.579 97.9943 229.377 97.9943C223.174 97.9943 217.658 96.4792 212.828 93.4489C207.999 90.4186 204.199 86.1098 201.429 80.5227C198.659 74.9356 197.275 68.3068 197.275 60.6364C197.275 52.9659 198.659 46.3371 201.429 40.75C204.199 35.1629 207.999 30.8542 212.828 27.8239C217.658 24.7936 223.174 23.2784 229.377 23.2784C235.579 23.2784 241.096 24.7936 245.925 27.8239C250.755 30.8542 254.554 35.1629 257.324 40.75C260.094 46.3371 261.479 52.9659 261.479 60.6364ZM252.956 60.6364C252.956 54.339 251.903 49.0241 249.796 44.6918C247.712 40.3594 244.883 37.0805 241.309 34.8551C237.757 32.6297 233.78 31.517 229.377 31.517C224.973 31.517 220.984 32.6297 217.409 34.8551C213.858 37.0805 211.029 40.3594 208.922 44.6918C206.839 49.0241 205.797 54.339 205.797 60.6364C205.797 66.9337 206.839 72.2486 208.922 76.581C211.029 80.9134 213.858 84.1922 217.409 86.4176C220.984 88.643 224.973 89.7557 229.377 89.7557C233.78 89.7557 237.757 88.643 241.309 86.4176C244.883 84.1922 247.712 80.9134 249.796 76.581C251.903 72.2486 252.956 66.9337 252.956 60.6364Z" fill="#1E1E1E"/>
<path d="M164.368 119V105.04H169.928C171.181 105.04 172.141 105.4 172.808 106.12C173.488 106.827 173.828 107.8 173.828 109.04C173.828 110.28 173.488 111.26 172.808 111.98C172.141 112.687 171.181 113.04 169.928 113.04H166.048V119H164.368ZM166.048 111.56H169.928C170.594 111.56 171.108 111.387 171.468 111.04C171.841 110.693 172.028 110.2 172.028 109.56V108.52C172.028 107.88 171.841 107.387 171.468 107.04C171.108 106.693 170.594 106.52 169.928 106.52H166.048V111.56ZM176.497 119V105.04H178.177V117.52H184.117V119H176.497ZM195.627 119L194.227 114.88H188.587L187.187 119H185.487L190.367 105.04H192.507L197.387 119H195.627ZM191.447 106.6H191.347L188.987 113.4H193.807L191.447 106.6ZM203.091 106.52V119H201.411V106.52H196.971V105.04H207.531V106.52H203.091ZM209.837 119V105.04H218.157V106.52H211.517V111.2H217.577V112.68H211.517V119H209.837ZM225.896 119.24C224.99 119.24 224.17 119.087 223.436 118.78C222.716 118.46 222.096 118 221.576 117.4C221.07 116.787 220.676 116.033 220.396 115.14C220.116 114.233 219.976 113.193 219.976 112.02C219.976 110.847 220.116 109.813 220.396 108.92C220.676 108.027 221.07 107.273 221.576 106.66C222.096 106.047 222.716 105.587 223.436 105.28C224.17 104.96 224.99 104.8 225.896 104.8C226.79 104.8 227.603 104.96 228.336 105.28C229.07 105.587 229.69 106.047 230.196 106.66C230.716 107.273 231.116 108.027 231.396 108.92C231.676 109.813 231.816 110.847 231.816 112.02C231.816 113.193 231.676 114.233 231.396 115.14C231.116 116.033 230.716 116.787 230.196 117.4C229.69 118 229.07 118.46 228.336 118.78C227.603 119.087 226.79 119.24 225.896 119.24ZM225.896 117.74C226.496 117.74 227.05 117.633 227.556 117.42C228.063 117.207 228.496 116.9 228.856 116.5C229.23 116.1 229.516 115.62 229.716 115.06C229.916 114.5 230.016 113.873 230.016 113.18V110.86C230.016 110.167 229.916 109.54 229.716 108.98C229.516 108.42 229.23 107.94 228.856 107.54C228.496 107.14 228.063 106.833 227.556 106.62C227.05 106.407 226.496 106.3 225.896 106.3C225.296 106.3 224.743 106.407 224.236 106.62C223.73 106.833 223.29 107.14 222.916 107.54C222.556 107.94 222.276 108.42 222.076 108.98C221.876 109.54 221.776 110.167 221.776 110.86V113.18C221.776 113.873 221.876 114.5 222.076 115.06C222.276 115.62 222.556 116.1 222.916 116.5C223.29 116.9 223.73 117.207 224.236 117.42C224.743 117.633 225.296 117.74 225.896 117.74ZM236.517 119H234.837V105.04H240.397C241.623 105.04 242.577 105.38 243.257 106.06C243.95 106.74 244.297 107.72 244.297 109C244.297 110.027 244.057 110.873 243.577 111.54C243.11 112.193 242.417 112.627 241.497 112.84L244.697 119H242.797L239.777 113H236.517V119ZM240.397 111.56C241.063 111.56 241.577 111.387 241.937 111.04C242.31 110.693 242.497 110.2 242.497 109.56V108.52C242.497 107.88 242.31 107.387 241.937 107.04C241.577 106.693 241.063 106.52 240.397 106.52H236.517V111.56H240.397ZM258.51 107.24H258.41L257.23 109.58L253.89 115.66L250.55 109.58L249.37 107.24H249.27V119H247.63V105.04H249.87L253.87 112.56H253.97L257.99 105.04H260.15V119H258.51V107.24Z" fill="#FF8B25"/>
</svg>
